<svg id="my-svg" width="100%" xmlns="http://www.w3.org/2000/svg" xmlns:xlink="http://www.w3.org/1999/xlink" class="flowchart" style="max-width: 757.062px; background-color: transparent;" viewBox="0 0 757.0625 1843.5625" role="graphics-document document" aria-roledescription="flowchart-v2"><style>#my-svg{font-family:"trebuchet ms",verdana,arial,sans-serif;font-size:16px;fill:#333;}@keyframes edge-animation-frame{from{stroke-dashoffset:0;}}@keyframes dash{to{stroke-dashoffset:0;}}#my-svg .edge-animation-slow{stroke-dasharray:9,5!important;stroke-dashoffset:900;animation:dash 50s linear infinite;stroke-linecap:round;}#my-svg .edge-animation-fast{stroke-dasharray:9,5!important;stroke-dashoffset:900;animation:dash 20s linear infinite;stroke-linecap:round;}#my-svg .error-icon{fill:#552222;}#my-svg .error-text{fill:#552222;stroke:#552222;}#my-svg .edge-thickness-normal{stroke-width:1px;}#my-svg .edge-thickness-thick{stroke-width:3.5px;}#my-svg .edge-pattern-solid{stroke-dasharray:0;}#my-svg .edge-thickness-invisible{stroke-width:0;fill:none;}#my-svg .edge-pattern-dashed{stroke-dasharray:3;}#my-svg .edge-pattern-dotted{stroke-dasharray:2;}#my-svg .marker{fill:#333333;stroke:#333333;}#my-svg .marker.cross{stroke:#333333;}#my-svg svg{font-family:"trebuchet ms",verdana,arial,sans-serif;font-size:16px;}#my-svg p{margin:0;}#my-svg .label{font-family:"trebuchet ms",verdana,arial,sans-serif;color:#333;}#my-svg .cluster-label text{fill:#333;}#my-svg .cluster-label span{color:#333;}#my-svg .cluster-label span p{background-color:transparent;}#my-svg .label text,#my-svg span{fill:#333;color:#333;}#my-svg .node rect,#my-svg .node circle,#my-svg .node ellipse,#my-svg .node polygon,#my-svg .node path{fill:#ECECFF;stroke:#9370DB;stroke-width:1px;}#my-svg .rough-node .label text,#my-svg .node .label text,#my-svg .image-shape .label,#my-svg .icon-shape .label{text-anchor:middle;}#my-svg .node .katex path{fill:#000;stroke:#000;stroke-width:1px;}#my-svg .rough-node .label,#my-svg .node .label,#my-svg .image-shape .label,#my-svg .icon-shape .label{text-align:center;}#my-svg .node.clickable{cursor:pointer;}#my-svg .root .anchor path{fill:#333333!important;stroke-width:0;stroke:#333333;}#my-svg .arrowheadPath{fill:#333333;}#my-svg .edgePaths .path{stroke:#333333;stroke-width:1px;}#my-svg .flowchart-link{stroke:#333333;fill:none;}#my-svg .edgeLabel{background-color:rgba(232,232,232, 0.8);text-align:center;}#my-svg .edgeLabel p{background-color:rgba(232,232,232, 0.8);}#my-svg .edgeLabel rect{opacity:0.5;background-color:rgba(232,232,232, 0.8);fill:rgba(232,232,232, 0.8);}#my-svg .labelBkg{background-color:rgba(232, 232, 232, 0.5);}#my-svg .cluster rect{fill:#ffffde;stroke:#aaaa33;stroke-width:1px;}#my-svg .cluster text{fill:#333;}#my-svg .cluster span{color:#333;}#my-svg .node .collapsed-indicator{fill:#aaaa33;stroke:none;opacity:0.6;}#my-svg .node .collapsed-separator{stroke:#aaaa33;stroke-width:0.75px;}#my-svg div.mermaidTooltip{position:absolute;text-align:center;max-width:200px;padding:2px;font-family:"trebuchet ms",verdana,arial,sans-serif;font-size:12px;background:hsl(80, 100%, 96.2745098039%);border:1px solid #aaaa33;border-radius:2px;pointer-events:none;z-index:100;}#my-svg .flowchartTitleText{text-anchor:middle;font-size:18px;fill:#333;}#my-svg rect.text{fill:none;stroke-width:0;}#my-svg .icon-shape,#my-svg .image-shape{background-color:rgba(232,232,232, 0.8);text-align:center;}#my-svg .icon-shape p,#my-svg .image-shape p{background-color:rgba(232,232,232, 0.8);padding:2px;}#my-svg .icon-shape .label rect,#my-svg .image-shape .label rect{opacity:0.5;background-color:rgba(232,232,232, 0.8);fill:rgba(232,232,232, 0.8);}#my-svg .label-icon{display:inline-block;height:1em;overflow:visible;vertical-align:-0.125em;}#my-svg .node .label-icon path{fill:currentColor;stroke:revert;stroke-width:revert;}#my-svg .node .neo-node{stroke:#9370DB;}#my-svg [data-look="neo"].node rect,#my-svg [data-look="neo"].cluster rect,#my-svg [data-look="neo"].node polygon{stroke:#9370DB;filter:drop-shadow(1px 2px 2px rgba(185, 185, 185, 1));}#my-svg [data-look="neo"].swimlane.cluster rect{filter:none;}#my-svg [data-look="neo"].node path{stroke:#9370DB;stroke-width:1px;}#my-svg [data-look="neo"].node .outer-path{filter:drop-shadow(1px 2px 2px rgba(185, 185, 185, 1));}#my-svg [data-look="neo"].node .neo-line path{stroke:#9370DB;filter:none;}#my-svg [data-look="neo"].node circle{stroke:#9370DB;filter:drop-shadow(1px 2px 2px rgba(185, 185, 185, 1));}#my-svg [data-look="neo"].node circle .state-start{fill:#000000;}#my-svg [data-look="neo"].icon-shape .icon{fill:#9370DB;filter:drop-shadow(1px 2px 2px rgba(185, 185, 185, 1));}#my-svg [data-look="neo"].icon-shape .icon-neo path{stroke:#9370DB;filter:drop-shadow(1px 2px 2px rgba(185, 185, 185, 1));}#my-svg :root{--mermaid-font-family:"trebuchet ms",verdana,arial,sans-serif;}</style><g><marker id="my-svg_flowchart-v2-pointEnd" class="marker flowchart-v2" viewBox="0 0 10 10" refX="5" refY="5" markerUnits="userSpaceOnUse" markerWidth="8" markerHeight="8" orient="auto"><path d="M 0 0 L 10 5 L 0 10 z" class="arrowMarkerPath" style="stroke-width: 1; stroke-dasharray: 1, 0;"/></marker><marker id="my-svg_flowchart-v2-pointStart" class="marker flowchart-v2" viewBox="0 0 10 10" refX="4.5" refY="5" markerUnits="userSpaceOnUse" markerWidth="8" markerHeight="8" orient="auto"><path d="M 0 5 L 10 10 L 10 0 z" class="arrowMarkerPath" style="stroke-width: 1; stroke-dasharray: 1, 0;"/></marker><marker id="my-svg_flowchart-v2-pointEnd-margin" class="marker flowchart-v2" viewBox="0 0 11.5 14" refX="11.5" refY="7" markerUnits="userSpaceOnUse" markerWidth="10.5" markerHeight="14" orient="auto"><path d="M 0 0 L 11.5 7 L 0 14 z" class="arrowMarkerPath" style="stroke-width: 0; stroke-dasharray: 1, 0;"/></marker><marker id="my-svg_flowchart-v2-pointStart-margin" class="marker flowchart-v2" viewBox="0 0 11.5 14" refX="1" refY="7" markerUnits="userSpaceOnUse" markerWidth="11.5" markerHeight="14" orient="auto"><polygon points="0,7 11.5,14 11.5,0" class="arrowMarkerPath" style="stroke-width: 0; stroke-dasharray: 1, 0;"/></marker><marker id="my-svg_flowchart-v2-circleEnd" class="marker flowchart-v2" viewBox="0 0 10 10" refX="11" refY="5" markerUnits="userSpaceOnUse" markerWidth="11" markerHeight="11" orient="auto"><circle cx="5" cy="5" r="5" class="arrowMarkerPath" style="stroke-width: 1; stroke-dasharray: 1, 0;"/></marker><marker id="my-svg_flowchart-v2-circleStart" class="marker flowchart-v2" viewBox="0 0 10 10" refX="-1" refY="5" markerUnits="userSpaceOnUse" markerWidth="11" markerHeight="11" orient="auto"><circle cx="5" cy="5" r="5" class="arrowMarkerPath" style="stroke-width: 1; stroke-dasharray: 1, 0;"/></marker><marker id="my-svg_flowchart-v2-circleEnd-margin" class="marker flowchart-v2" viewBox="0 0 10 10" refY="5" refX="12.25" markerUnits="userSpaceOnUse" markerWidth="14" markerHeight="14" orient="auto"><circle cx="5" cy="5" r="5" class="arrowMarkerPath" style="stroke-width: 0; stroke-dasharray: 1, 0;"/></marker><marker id="my-svg_flowchart-v2-circleStart-margin" class="marker flowchart-v2" viewBox="0 0 10 10" refX="-2" refY="5" markerUnits="userSpaceOnUse" markerWidth="14" markerHeight="14" orient="auto"><circle cx="5" cy="5" r="5" class="arrowMarkerPath" style="stroke-width: 0; stroke-dasharray: 1, 0;"/></marker><marker id="my-svg_flowchart-v2-crossEnd" class="marker cross flowchart-v2" viewBox="0 0 11 11" refX="12" refY="5.2" markerUnits="userSpaceOnUse" markerWidth="11" markerHeight="11" orient="auto"><path d="M 1,1 l 9,9 M 10,1 l -9,9" class="arrowMarkerPath" style="stroke-width: 2; stroke-dasharray: 1, 0;"/></marker><marker id="my-svg_flowchart-v2-crossStart" class="marker cross flowchart-v2" viewBox="0 0 11 11" refX="-1" refY="5.2" markerUnits="userSpaceOnUse" markerWidth="11" markerHeight="11" orient="auto"><path d="M 1,1 l 9,9 M 10,1 l -9,9" class="arrowMarkerPath" style="stroke-width: 2; stroke-dasharray: 1, 0;"/></marker><marker id="my-svg_flowchart-v2-crossEnd-margin" class="marker cross flowchart-v2" viewBox="0 0 15 15" refX="17.7" refY="7.5" markerUnits="userSpaceOnUse" markerWidth="12" markerHeight="12" orient="auto"><path d="M 1,1 L 14,14 M 1,14 L 14,1" class="arrowMarkerPath" style="stroke-width: 2.5;"/></marker><marker id="my-svg_flowchart-v2-crossStart-margin" class="marker cross flowchart-v2" viewBox="0 0 15 15" refX="-3.5" refY="7.5" markerUnits="userSpaceOnUse" markerWidth="12" markerHeight="12" orient="auto"><path d="M 1,1 L 14,14 M 1,14 L 14,1" class="arrowMarkerPath" style="stroke-width: 2.5; stroke-dasharray: 1, 0;"/></marker><g class="root"><g class="clusters"><g class="cluster" id="my-svg-writing" data-look="classic"><rect style="" x="8" y="670" width="367.5" height="965.5625"/><g class="cluster-label" transform="translate(118.1796875, 670)"><foreignObject width="147.140625" height="24"><div xmlns="http://www.w3.org/1999/xhtml" style="display: table-cell; white-space: nowrap; line-height: 1.5;"><span class="nodeLabel"><p>The story workspace</p></span></div></foreignObject></g></g><g class="cluster" id="my-svg-queued" data-look="classic"><rect style="" x="86.4375" y="492" width="248.125" height="128"/><g class="cluster-label" transform="translate(171.8359375, 492)"><foreignObject width="77.328125" height="24"><div xmlns="http://www.w3.org/1999/xhtml" style="display: table-cell; white-space: nowrap; line-height: 1.5;"><span class="nodeLabel"><p>The Queue</p></span></div></foreignObject></g></g><g class="cluster" id="my-svg-capturing" data-look="classic"><rect style="" x="108" y="186" width="633.5625" height="256"/><g class="cluster-label" transform="translate(323.5078125, 186)"><foreignObject width="202.546875" height="24"><div xmlns="http://www.w3.org/1999/xhtml" style="display: table-cell; white-space: nowrap; line-height: 1.5;"><span class="nodeLabel"><p>Capture · Run meetings now</p></span></div></foreignObject></g></g><g class="cluster" id="my-svg-where" data-look="classic"><rect style="" x="191.44140625" y="8" width="475.265625" height="128"/><g class="cluster-label" transform="translate(311.04296875, 8)"><foreignObject width="236.0625" height="24"><div xmlns="http://www.w3.org/1999/xhtml" style="display: table-cell; white-space: nowrap; line-height: 1.5;"><span class="nodeLabel"><p>Where the recording comes from</p></span></div></foreignObject></g></g></g><g class="edgePaths"><path d="M315.965,111L315.965,115.167C315.965,119.333,315.965,127.667,315.965,136C315.965,144.333,315.965,152.667,315.965,161C315.965,169.333,315.965,177.667,324.478,185.723C332.992,193.779,350.019,201.559,358.532,205.448L367.046,209.338" id="my-svg-L_CH_CAP_0" class="edge-thickness-normal edge-pattern-solid edge-thickness-normal edge-pattern-solid flowchart-link" style=";" data-edge="true" data-et="edge" data-id="L_CH_CAP_0" data-points="W3sieCI6MzE1Ljk2NDg0Mzc1LCJ5IjoxMTF9LHsieCI6MzE1Ljk2NDg0Mzc1LCJ5IjoxMzZ9LHsieCI6MzE1Ljk2NDg0Mzc1LCJ5IjoxNjF9LHsieCI6MzE1Ljk2NDg0Mzc1LCJ5IjoxODZ9LHsieCI6MzcwLjY4NDI2OTgzMTczMDgsInkiOjIxMX1d" data-look="classic" marker-end="url(#my-svg_flowchart-v2-pointEnd)"/><path d="M543.598,99L543.598,105.167C543.598,111.333,543.598,123.667,543.598,134C543.598,144.333,543.598,152.667,543.598,161C543.598,169.333,543.598,177.667,535.084,185.723C526.571,193.779,509.544,201.559,501.03,205.448L492.516,209.338" id="my-svg-L_PG_CAP_0" class="edge-thickness-normal edge-pattern-solid edge-thickness-normal edge-pattern-solid flowchart-link" style=";" data-edge="true" data-et="edge" data-id="L_PG_CAP_0" data-points="W3sieCI6NTQzLjU5NzY1NjI1LCJ5Ijo5OX0seyJ4Ijo1NDMuNTk3NjU2MjUsInkiOjEzNn0seyJ4Ijo1NDMuNTk3NjU2MjUsInkiOjE2MX0seyJ4Ijo1NDMuNTk3NjU2MjUsInkiOjE4Nn0seyJ4Ijo0ODguODc4MjMwMTY4MjY5MiwieSI6MjExfV0=" data-look="classic" marker-end="url(#my-svg_flowchart-v2-pointEnd)"/><path d="M429.781,265L429.781,269.167C429.781,273.333,429.781,281.667,429.781,289.333C429.781,297,429.781,304,429.781,307.5L429.781,311" id="my-svg-L_CAP_REV_0" class="edge-thickness-normal edge-pattern-solid edge-thickness-normal edge-pattern-solid flowchart-link" style=";" data-edge="true" data-et="edge" data-id="L_CAP_REV_0" data-points="W3sieCI6NDI5Ljc4MTI1LCJ5IjoyNjV9LHsieCI6NDI5Ljc4MTI1LCJ5IjoyOTB9LHsieCI6NDI5Ljc4MTI1LCJ5IjozMTV9XQ==" data-look="classic" marker-end="url(#my-svg_flowchart-v2-pointEnd)"/><path d="M299.781,411.056L284.901,416.214C270.021,421.371,240.26,431.685,225.38,441.009C210.5,450.333,210.5,458.667,210.5,467C210.5,475.333,210.5,483.667,210.5,491.333C210.5,499,210.5,506,210.5,509.5L210.5,513" id="my-svg-L_REV_LEAD_0" class="edge-thickness-normal edge-pattern-solid edge-thickness-normal edge-pattern-solid flowchart-link" style=";" data-edge="true" data-et="edge" data-id="L_REV_LEAD_0" data-points="W3sieCI6Mjk5Ljc4MTI1LCJ5Ijo0MTEuMDU2MjkxODYyNjE5MzN9LHsieCI6MjEwLjUsInkiOjQ0Mn0seyJ4IjoyMTAuNSwieSI6NDY3fSx7IngiOjIxMC41LCJ5Ijo0OTJ9LHsieCI6MjEwLjUsInkiOjUxN31d" data-look="classic" marker-end="url(#my-svg_flowchart-v2-pointEnd)"/><path d="M210.5,595L210.5,599.167C210.5,603.333,210.5,611.667,210.5,620C210.5,628.333,210.5,636.667,210.5,645C210.5,653.333,210.5,661.667,210.5,669.333C210.5,677,210.5,684,210.5,687.5L210.5,691" id="my-svg-L_LEAD_DIR_0" class="edge-thickness-normal edge-pattern-solid edge-thickness-normal edge-pattern-solid flowchart-link" style=";" data-edge="true" data-et="edge" data-id="L_LEAD_DIR_0" data-points="W3sieCI6MjEwLjUsInkiOjU5NX0seyJ4IjoyMTAuNSwieSI6NjIwfSx7IngiOjIxMC41LCJ5Ijo2NDV9LHsieCI6MjEwLjUsInkiOjY3MH0seyJ4IjoyMTAuNSwieSI6Njk1fV0=" data-look="classic" marker-end="url(#my-svg_flowchart-v2-pointEnd)"/><path d="M210.5,749L210.5,753.167C210.5,757.333,210.5,765.667,210.5,773.333C210.5,781,210.5,788,210.5,791.5L210.5,795" id="my-svg-L_DIR_DRAFT_0" class="edge-thickness-normal edge-pattern-solid edge-thickness-normal edge-pattern-solid flowchart-link" style=";" data-edge="true" data-et="edge" data-id="L_DIR_DRAFT_0" data-points="W3sieCI6MjEwLjUsInkiOjc0OX0seyJ4IjoyMTAuNSwieSI6Nzc0fSx7IngiOjIxMC41LCJ5Ijo3OTl9XQ==" data-look="classic" marker-end="url(#my-svg_flowchart-v2-pointEnd)"/><path d="M210.5,901L210.5,905.167C210.5,909.333,210.5,917.667,210.5,925.333C210.5,933,210.5,940,210.5,943.5L210.5,947" id="my-svg-L_DRAFT_USED_0" class="edge-thickness-normal edge-pattern-solid edge-thickness-normal edge-pattern-solid flowchart-link" style=";" data-edge="true" data-et="edge" data-id="L_DRAFT_USED_0" data-points="W3sieCI6MjEwLjUsInkiOjkwMX0seyJ4IjoyMTAuNSwieSI6OTI2fSx7IngiOjIxMC41LCJ5Ijo5NTF9XQ==" data-look="classic" marker-end="url(#my-svg_flowchart-v2-pointEnd)"/><path d="M210.5,1053L210.5,1057.167C210.5,1061.333,210.5,1069.667,210.5,1077.333C210.5,1085,210.5,1092,210.5,1095.5L210.5,1099" id="my-svg-L_USED_MASK_0" class="edge-thickness-normal edge-pattern-solid edge-thickness-normal edge-pattern-solid flowchart-link" style=";" data-edge="true" data-et="edge" data-id="L_USED_MASK_0" data-points="W3sieCI6MjEwLjUsInkiOjEwNTN9LHsieCI6MjEwLjUsInkiOjEwNzh9LHsieCI6MjEwLjUsInkiOjExMDN9XQ==" data-look="classic" marker-end="url(#my-svg_flowchart-v2-pointEnd)"/><path d="M210.5,1181L210.5,1185.167C210.5,1189.333,210.5,1197.667,248.237,1217.687C285.974,1237.707,361.448,1269.415,399.185,1285.268L436.922,1301.122" id="my-svg-L_MASK_GATE_0" class="edge-thickness-normal edge-pattern-solid edge-thickness-normal edge-pattern-solid flowchart-link" style=";" data-edge="true" data-et="edge" data-id="L_MASK_GATE_0" data-points="W3sieCI6MjEwLjUsInkiOjExODF9LHsieCI6MjEwLjUsInkiOjEyMDZ9LHsieCI6NDQwLjYwOTg1MzUyNTU5NDMsInkiOjEzMDIuNjcxMzk2NDc0NDA1OH1d" data-look="classic" marker-end="url(#my-svg_flowchart-v2-pointEnd)"/><path d="M512.281,1434.563L512.281,1442.729C512.281,1450.896,512.281,1467.229,512.36,1486.229C512.438,1505.229,512.595,1526.896,512.674,1537.729L512.752,1548.563" id="my-svg-L_GATE_PAPER_0" class="edge-thickness-normal edge-pattern-solid edge-thickness-normal edge-pattern-solid flowchart-link" style=";" data-edge="true" data-et="edge" data-id="L_GATE_PAPER_0" data-points="W3sieCI6NTEyLjI4MTI1LCJ5IjoxNDM0LjU2MjV9LHsieCI6NTEyLjI4MTI1LCJ5IjoxNDgzLjU2MjV9LHsieCI6NTEyLjc4MTI1LCJ5IjoxNTUyLjU2MjV9XQ==" data-look="classic" marker-end="url(#my-svg_flowchart-v2-pointEnd)"/><path d="M440.441,1362.722L392.118,1382.862C343.794,1403.002,247.147,1443.282,204.016,1471.038C160.885,1498.794,171.27,1514.026,176.463,1521.642L181.656,1529.258" id="my-svg-L_GATE_REDRAFT_0" class="edge-thickness-normal edge-pattern-solid edge-thickness-normal edge-pattern-solid flowchart-link" style=";" data-edge="true" data-et="edge" data-id="L_GATE_REDRAFT_0" data-points="W3sieCI6NDQwLjQ0MTEzNzEzMjY2Njc3LCJ5IjoxMzYyLjcyMjM4NzEzMjY2Njd9LHsieCI6MTUwLjUsInkiOjE0ODMuNTYyNX0seyJ4IjoxODMuOTA5MDkwOTA5MDkwOSwieSI6MTUzMi41NjI1fV0=" data-look="classic" marker-end="url(#my-svg_flowchart-v2-pointEnd)"/><path d="M242.631,1532.563L249.359,1524.396C256.087,1516.229,269.544,1499.896,303.695,1473.695C337.846,1447.495,392.692,1411.427,420.114,1393.393L447.537,1375.359" id="my-svg-L_REDRAFT_GATE_0" class="edge-thickness-normal edge-pattern-solid edge-thickness-normal edge-pattern-solid flowchart-link" style=";" data-edge="true" data-et="edge" data-id="L_REDRAFT_GATE_0" data-points="W3sieCI6MjQyLjYzMDY4MTgxODE4MTgsInkiOjE1MzIuNTYyNX0seyJ4IjoyODMsInkiOjE0ODMuNTYyNX0seyJ4Ijo0NTAuODc5NDIyMDcyODQ5OSwieSI6MTM3My4xNjA2NzIwNzI4NDk4fV0=" data-look="classic" marker-end="url(#my-svg_flowchart-v2-pointEnd)"/><path d="M559.781,411.056L574.661,416.214C589.542,421.371,619.302,431.685,634.182,441.009C649.063,450.333,649.063,458.667,649.063,467C649.063,475.333,649.063,483.667,649.063,498.5C649.063,513.333,649.063,534.667,649.063,556C649.063,577.333,649.063,598.667,649.063,613.5C649.063,628.333,649.063,636.667,649.063,645C649.063,653.333,649.063,661.667,649.063,674.5C649.063,687.333,649.063,704.667,649.063,722C649.063,739.333,649.063,756.667,649.063,778C649.063,799.333,649.063,824.667,649.063,850C649.063,875.333,649.063,900.667,649.063,926C649.063,951.333,649.063,976.667,649.063,1002C649.063,1027.333,649.063,1052.667,649.063,1076C649.063,1099.333,649.063,1120.667,649.063,1142C649.063,1163.333,649.063,1184.667,649.063,1216.464C649.063,1248.26,649.063,1290.521,649.063,1336.781C649.063,1383.042,649.063,1433.302,649.063,1473.099C649.063,1512.896,649.063,1542.229,649.063,1567.563C649.063,1592.896,649.063,1614.229,649.063,1633.063C649.063,1651.896,649.063,1668.229,643.854,1684.012C638.645,1699.795,628.227,1715.028,623.018,1722.644L617.809,1730.261" id="my-svg-L_REV_REVIEW_0" class="edge-thickness-normal edge-pattern-dotted edge-thickness-normal edge-pattern-solid flowchart-link" style=";" data-edge="true" data-et="edge" data-id="L_REV_REVIEW_0" data-points="W3sieCI6NTU5Ljc4MTI1LCJ5Ijo0MTEuMDU2MjkxODYyNjE5MzN9LHsieCI6NjQ5LjA2MjUsInkiOjQ0Mn0seyJ4Ijo2NDkuMDYyNSwieSI6NDY3fSx7IngiOjY0OS4wNjI1LCJ5Ijo0OTJ9LHsieCI6NjQ5LjA2MjUsInkiOjU1Nn0seyJ4Ijo2NDkuMDYyNSwieSI6NjIwfSx7IngiOjY0OS4wNjI1LCJ5Ijo2NDV9LHsieCI6NjQ5LjA2MjUsInkiOjY3MH0seyJ4Ijo2NDkuMDYyNSwieSI6NzIyfSx7IngiOjY0OS4wNjI1LCJ5Ijo3NzR9LHsieCI6NjQ5LjA2MjUsInkiOjg1MH0seyJ4Ijo2NDkuMDYyNSwieSI6OTI2fSx7IngiOjY0OS4wNjI1LCJ5IjoxMDAyfSx7IngiOjY0OS4wNjI1LCJ5IjoxMDc4fSx7IngiOjY0OS4wNjI1LCJ5IjoxMTQyfSx7IngiOjY0OS4wNjI1LCJ5IjoxMjA2fSx7IngiOjY0OS4wNjI1LCJ5IjoxMzMyLjc4MTI1fSx7IngiOjY0OS4wNjI1LCJ5IjoxNDgzLjU2MjV9LHsieCI6NjQ5LjA2MjUsInkiOjE1NzEuNTYyNX0seyJ4Ijo2NDkuMDYyNSwieSI6MTYzNS41NjI1fSx7IngiOjY0OS4wNjI1LCJ5IjoxNjg0LjU2MjV9LHsieCI6NjE1LjU1MTA5Mzc1LCJ5IjoxNzMzLjU2MjV9XQ==" data-look="classic" marker-end="url(#my-svg_flowchart-v2-pointEnd)"/><path d="M512.781,1591.563L512.698,1598.896C512.615,1606.229,512.448,1620.896,512.365,1636.396C512.281,1651.896,512.281,1668.229,517.49,1684.012C522.699,1699.795,533.117,1715.028,538.326,1722.644L543.535,1730.261" id="my-svg-L_PAPER_REVIEW_0" class="edge-thickness-normal edge-pattern-dotted edge-thickness-normal edge-pattern-solid flowchart-link" style=";" data-edge="true" data-et="edge" data-id="L_PAPER_REVIEW_0" data-points="W3sieCI6NTEyLjc4MTI1LCJ5IjoxNTkxLjU2MjV9LHsieCI6NTEyLjI4MTI1LCJ5IjoxNjM1LjU2MjV9LHsieCI6NTEyLjI4MTI1LCJ5IjoxNjg0LjU2MjV9LHsieCI6NTQ1Ljc5MjY1NjI1LCJ5IjoxNzMzLjU2MjV9XQ==" data-look="classic" marker-end="url(#my-svg_flowchart-v2-pointEnd)"/></g><g class="edgeLabels"><g class="edgeLabel"><g class="label" data-id="L_CH_CAP_0" transform="translate(0, 0)"><foreignObject width="0" height="0"><div xmlns="http://www.w3.org/1999/xhtml" class="labelBkg" style="display: table-cell; white-space: nowrap; line-height: 1.5; max-width: 200px; text-align: center;"><span class="edgeLabel"></span></div></foreignObject></g></g><g class="edgeLabel"><g class="label" data-id="L_PG_CAP_0" transform="translate(0, 0)"><foreignObject width="0" height="0"><div xmlns="http://www.w3.org/1999/xhtml" class="labelBkg" style="display: table-cell; white-space: nowrap; line-height: 1.5; max-width: 200px; text-align: center;"><span class="edgeLabel"></span></div></foreignObject></g></g><g class="edgeLabel"><g class="label" data-id="L_CAP_REV_0" transform="translate(0, 0)"><foreignObject width="0" height="0"><div xmlns="http://www.w3.org/1999/xhtml" class="labelBkg" style="display: table-cell; white-space: nowrap; line-height: 1.5; max-width: 200px; text-align: center;"><span class="edgeLabel"></span></div></foreignObject></g></g><g class="edgeLabel"><g class="label" data-id="L_REV_LEAD_0" transform="translate(0, 0)"><foreignObject width="0" height="0"><div xmlns="http://www.w3.org/1999/xhtml" class="labelBkg" style="display: table-cell; white-space: nowrap; line-height: 1.5; max-width: 200px; text-align: center;"><span class="edgeLabel"></span></div></foreignObject></g></g><g class="edgeLabel"><g class="label" data-id="L_LEAD_DIR_0" transform="translate(0, 0)"><foreignObject width="0" height="0"><div xmlns="http://www.w3.org/1999/xhtml" class="labelBkg" style="display: table-cell; white-space: nowrap; line-height: 1.5; max-width: 200px; text-align: center;"><span class="edgeLabel"></span></div></foreignObject></g></g><g class="edgeLabel"><g class="label" data-id="L_DIR_DRAFT_0" transform="translate(0, 0)"><foreignObject width="0" height="0"><div xmlns="http://www.w3.org/1999/xhtml" class="labelBkg" style="display: table-cell; white-space: nowrap; line-height: 1.5; max-width: 200px; text-align: center;"><span class="edgeLabel"></span></div></foreignObject></g></g><g class="edgeLabel"><g class="label" data-id="L_DRAFT_USED_0" transform="translate(0, 0)"><foreignObject width="0" height="0"><div xmlns="http://www.w3.org/1999/xhtml" class="labelBkg" style="display: table-cell; white-space: nowrap; line-height: 1.5; max-width: 200px; text-align: center;"><span class="edgeLabel"></span></div></foreignObject></g></g><g class="edgeLabel"><g class="label" data-id="L_USED_MASK_0" transform="translate(0, 0)"><foreignObject width="0" height="0"><div xmlns="http://www.w3.org/1999/xhtml" class="labelBkg" style="display: table-cell; white-space: nowrap; line-height: 1.5; max-width: 200px; text-align: center;"><span class="edgeLabel"></span></div></foreignObject></g></g><g class="edgeLabel"><g class="label" data-id="L_MASK_GATE_0" transform="translate(0, 0)"><foreignObject width="0" height="0"><div xmlns="http://www.w3.org/1999/xhtml" class="labelBkg" style="display: table-cell; white-space: nowrap; line-height: 1.5; max-width: 200px; text-align: center;"><span class="edgeLabel"></span></div></foreignObject></g></g><g class="edgeLabel" transform="translate(512.28125, 1483.5625)"><g class="label" data-id="L_GATE_PAPER_0" transform="translate(-26.4609375, -12)"><foreignObject width="52.921875" height="24"><div xmlns="http://www.w3.org/1999/xhtml" class="labelBkg" style="display: table-cell; white-space: nowrap; line-height: 1.5; max-width: 200px; text-align: center;"><span class="edgeLabel"><p>current</p></span></div></foreignObject></g></g><g class="edgeLabel" transform="translate(150.5, 1483.5625)"><g class="label" data-id="L_GATE_REDRAFT_0" transform="translate(-100, -24)"><foreignObject width="200" height="48"><div xmlns="http://www.w3.org/1999/xhtml" class="labelBkg" style="display: table; white-space: break-spaces; line-height: 1.5; max-width: 200px; text-align: center; width: 200px;"><span class="edgeLabel"><p>stale, missing or hash mismatch</p></span></div></foreignObject></g></g><g class="edgeLabel"><g class="label" data-id="L_REDRAFT_GATE_0" transform="translate(0, 0)"><foreignObject width="0" height="0"><div xmlns="http://www.w3.org/1999/xhtml" class="labelBkg" style="display: table-cell; white-space: nowrap; line-height: 1.5; max-width: 200px; text-align: center;"><span class="edgeLabel"></span></div></foreignObject></g></g><g class="edgeLabel" transform="translate(649.0625, 1002)"><g class="label" data-id="L_REV_REVIEW_0" transform="translate(-100, -24)"><foreignObject width="200" height="48"><div xmlns="http://www.w3.org/1999/xhtml" class="labelBkg" style="display: table; white-space: break-spaces; line-height: 1.5; max-width: 200px; text-align: center; width: 200px;"><span class="edgeLabel"><p>recording revised after publication</p></span></div></foreignObject></g></g><g class="edgeLabel" transform="translate(512.28125, 1684.5625)"><g class="label" data-id="L_PAPER_REVIEW_0" transform="translate(-100, -24)"><foreignObject width="200" height="48"><div xmlns="http://www.w3.org/1999/xhtml" class="labelBkg" style="display: table; white-space: break-spaces; line-height: 1.5; max-width: 200px; text-align: center; width: 200px;"><span class="edgeLabel"><p>review only, the printed story is not rewritten</p></span></div></foreignObject></g></g></g><g class="nodes"><g class="node default" id="my-svg-flowchart-CH-0" data-look="classic" transform="translate(315.96484375, 72)"><rect class="basic label-container" style="" x="-89.5234375" y="-39" width="179.046875" height="78"/><g class="label" style="" transform="translate(-59.5234375, -24)"><rect/><foreignObject width="119.046875" height="48"><div xmlns="http://www.w3.org/1999/xhtml" style="display: table-cell; white-space: nowrap; line-height: 1.5; max-width: 200px; text-align: center;"><span class="nodeLabel"><p>YouTube channel<br />public-access TV</p></span></div></foreignObject></g></g><g class="node default" id="my-svg-flowchart-PG-1" data-look="classic" transform="translate(543.59765625, 72)"><rect class="basic label-container" style="" x="-88.109375" y="-27" width="176.21875" height="54"/><g class="label" style="" transform="translate(-58.109375, -12)"><rect/><foreignObject width="116.21875" height="24"><div xmlns="http://www.w3.org/1999/xhtml" style="display: table-cell; white-space: nowrap; line-height: 1.5; max-width: 200px; text-align: center;"><span class="nodeLabel"><p>PrimeGov portal</p></span></div></foreignObject></g></g><g class="node default" id="my-svg-flowchart-CAP-2" data-look="classic" transform="translate(429.78125, 238)"><rect class="basic label-container" style="" x="-109.1484375" y="-27" width="218.296875" height="54"/><g class="label" style="" transform="translate(-79.1484375, -12)"><rect/><foreignObject width="158.296875" height="24"><div xmlns="http://www.w3.org/1999/xhtml" style="display: table-cell; white-space: nowrap; line-height: 1.5; max-width: 200px; text-align: center;"><span class="nodeLabel"><p>Capture the recording</p></span></div></foreignObject></g></g><g class="node default" id="my-svg-flowchart-REV-3" data-look="classic" transform="translate(429.78125, 366)"><rect class="basic label-container" style="" x="-130" y="-51" width="260" height="102"/><g class="label" style="" transform="translate(-100, -36)"><rect/><foreignObject width="200" height="72"><div xmlns="http://www.w3.org/1999/xhtml" style="display: table; white-space: break-spaces; line-height: 1.5; max-width: 200px; text-align: center; width: 200px;"><span class="nodeLabel"><p>Transcript revision<br />content-addressed, immutable</p></span></div></foreignObject></g></g><g class="node default" id="my-svg-flowchart-LEAD-4" data-look="classic" transform="translate(210.5, 556)"><rect class="basic label-container" style="" x="-89.0625" y="-39" width="178.125" height="78"/><g class="label" style="" transform="translate(-59.0625, -24)"><rect/><foreignObject width="118.125" height="48"><div xmlns="http://www.w3.org/1999/xhtml" style="display: table-cell; white-space: nowrap; line-height: 1.5; max-width: 200px; text-align: center;"><span class="nodeLabel"><p>An ordinary lead<br />status: new</p></span></div></foreignObject></g></g><g class="node default" id="my-svg-flowchart-DIR-5" data-look="classic" transform="translate(210.5, 722)"><rect class="basic label-container" style="" x="-104.75" y="-27" width="209.5" height="54"/><g class="label" style="" transform="translate(-74.75, -12)"><rect/><foreignObject width="149.5" height="24"><div xmlns="http://www.w3.org/1999/xhtml" style="display: table-cell; white-space: nowrap; line-height: 1.5; max-width: 200px; text-align: center;"><span class="nodeLabel"><p>Story direction for AI</p></span></div></foreignObject></g></g><g class="node default" id="my-svg-flowchart-DRAFT-6" data-look="classic" transform="translate(210.5, 850)"><rect class="basic label-container" style="" x="-130" y="-51" width="260" height="102"/><g class="label" style="" transform="translate(-100, -36)"><rect/><foreignObject width="200" height="72"><div xmlns="http://www.w3.org/1999/xhtml" style="display: table; white-space: break-spaces; line-height: 1.5; max-width: 200px; text-align: center; width: 200px;"><span class="nodeLabel"><p>Draft with AI<br />bounded slice of the transcript</p></span></div></foreignObject></g></g><g class="node default" id="my-svg-flowchart-USED-7" data-look="classic" transform="translate(210.5, 1002)"><rect class="basic label-container" style="" x="-130" y="-51" width="260" height="102"/><g class="label" style="" transform="translate(-100, -36)"><rect/><foreignObject width="200" height="72"><div xmlns="http://www.w3.org/1999/xhtml" style="display: table; white-space: break-spaces; line-height: 1.5; max-width: 200px; text-align: center; width: 200px;"><span class="nodeLabel"><p>Used citations persisted<br />read off what the draft says</p></span></div></foreignObject></g></g><g class="node default" id="my-svg-flowchart-MASK-8" data-look="classic" transform="translate(210.5, 1142)"><rect class="basic label-container" style="" x="-121.8828125" y="-39" width="243.765625" height="78"/><g class="label" style="" transform="translate(-91.8828125, -24)"><rect/><foreignObject width="183.765625" height="48"><div xmlns="http://www.w3.org/1999/xhtml" style="display: table-cell; white-space: nowrap; line-height: 1.5; max-width: 200px; text-align: center;"><span class="nodeLabel"><p>Name check masks<br />unverified speaker names</p></span></div></foreignObject></g></g><g class="node default" id="my-svg-flowchart-REDRAFT-9" data-look="classic" transform="translate(210.5, 1571.5625)"><rect class="basic label-container" style="" x="-130" y="-39" width="260" height="78"/><g class="label" style="" transform="translate(-100, -24)"><rect/><foreignObject width="200" height="48"><div xmlns="http://www.w3.org/1999/xhtml" style="display: table; white-space: break-spaces; line-height: 1.5; max-width: 200px; text-align: center; width: 200px;"><span class="nodeLabel"><p>Redraft and reverify citations</p></span></div></foreignObject></g></g><g class="node default" id="my-svg-flowchart-GATE-10" data-look="classic" transform="translate(512.28125, 1332.78125)"><polygon points="101.78125,0 203.5625,-101.78125 101.78125,-203.5625 0,-101.78125" class="label-container" transform="translate(-101.28125, 101.78125)"/><g class="label" style="" transform="translate(-62.78125, -24)"><rect/><foreignObject width="125.5625" height="48"><div xmlns="http://www.w3.org/1999/xhtml" style="display: table-cell; white-space: nowrap; line-height: 1.5; max-width: 200px; text-align: center;"><span class="nodeLabel"><p>Publication gate<br />citations current?</p></span></div></foreignObject></g></g><g class="node default" id="my-svg-flowchart-PAPER-11" data-look="classic" transform="translate(512.28125, 1571.5625)"><g class="basic label-container outer-path"><path d="M-55.046875 -19.5 C-25.364698447273348 -19.5, 4.317478105453304 -19.5, 55.046875 -19.5 C55.046875 -19.5, 55.046875 -19.5, 55.046875 -19.5 C55.545398804608084 -19.48401331190394, 56.04392260921617 -19.46802662380788, 56.2962442896239 -19.45993515863156 C56.65036428358238 -19.425773628705986, 57.00448427754086 -19.391612098780413, 57.540479652847864 -19.3399052695533 C57.98999219124329 -19.267231568367325, 58.43950472963871 -19.194557867181356, 58.77446825967676 -19.140403561325776 C59.25624603748554 -19.030440927434736, 59.73802381529432 -18.92047829354369, 59.99313938623539 -18.862249829261074 C60.289681572299465 -18.774237665018955, 60.586223758363545 -18.68622550077684, 61.191485251460605 -18.50658706670804 C61.563876054795614 -18.369543808737905, 61.93626685813062 -18.232500550767774, 62.3645815951478 -18.074876768247425 C62.69858877513007 -17.927021697640235, 63.03259595511234 -17.779166627033046, 63.50760791279238 -17.568892924097174 C63.752093607599306 -17.441344893716963, 63.996579302406225 -17.313796863336755, 64.61586726407678 -16.990714730406097 C64.91044156959876 -16.812142055287904, 65.20501587512074 -16.633569380169714, 65.6848055736057 -16.342718045390892 C66.08793883386517 -16.061509734391464, 66.49107209412462 -15.780301423392034, 66.71003034457871 -15.627565626425154 C67.06507940313837 -15.344423450476075, 67.42012846169803 -15.061281274526994, 67.68732870850187 -14.848196188198123 C68.02919183517702 -14.537725141754423, 68.37105496185217 -14.227254095310723, 68.61268473676799 -14.007812326905688 C68.94537374690219 -13.664283609666407, 69.27806275703641 -13.320754892427125, 69.48229594296865 -13.10986736009568 C69.72718967087188 -12.82220125245267, 69.97208339877511 -12.53453514480966, 70.29258890812658 -12.158051136245305 C70.53762955800707 -11.8297189890679, 70.78267020788755 -11.501386841890493, 71.04023396464063 -11.156274872382312 C71.2650271136474 -10.810932230095453, 71.48982026265418 -10.465589587808592, 71.72215887860425 -10.108655082055241 C71.9533034146489 -9.69823455238565, 72.18444795069354 -9.28781402271606, 72.3355614742735 -9.019496659696287 C72.48487516430075 -8.709443587553563, 72.63418885432797 -8.399390515410838, 72.87792114880834 -7.893275190886684 C73.0151504063566 -7.554316271595305, 73.15237966390484 -7.215357352303926, 73.34700922997033 -6.734618561215508 C73.47476366833423 -6.349842547768906, 73.60251810669816 -5.965066534322305, 73.74089813421489 -5.548287939305138 C73.86677460998854 -5.068266381970503, 73.99265108576219 -4.588244824635868, 74.05796928754556 -4.339158212148133 C74.12729525174316 -3.9831840380411676, 74.19662121594077 -3.6272098639342025, 74.29691977658177 -3.1121979531509023 C74.35182636775207 -2.686353274566904, 74.40673295892236 -2.2605085959829054, 74.45676770250937 -1.872449005199798 C74.4770667102767 -1.5562755741594776, 74.49736571804402 -1.2401021431191575, 74.53685621591342 -0.6250057626472757 C74.53685621591342 -0.3728483503784167, 74.53685621591342 -0.12069093810955767, 74.53685621591342 0.625005762647271 C74.50695154524068 1.0907951469907389, 74.47704687456796 1.5565845313342068, 74.45676770250937 1.8724490051997846 C74.39679237704189 2.3376057860579706, 74.3368170515744 2.802762566916156, 74.29691977658177 3.1121979531508885 C74.20820893655973 3.5677093676214238, 74.11949809653768 4.023220782091959, 74.05796928754556 4.339158212148129 C73.97912999582886 4.639806600629123, 73.90029070411214 4.940454989110119, 73.74089813421489 5.548287939305125 C73.6396288765728 5.853294808258057, 73.53835961893071 6.1583016772109875, 73.34700922997033 6.734618561215495 C73.21896968979682 7.050878700920141, 73.09093014962333 7.3671388406247855, 72.87792114880834 7.893275190886679 C72.69221673727543 8.278894374872653, 72.5065123257425 8.664513558858626, 72.3355614742735 9.019496659696284 C72.16224439750853 9.327238679749595, 71.98892732074356 9.634980699802906, 71.72215887860425 10.108655082055236 C71.4686680954986 10.498084996711727, 71.21517731239295 10.887514911368218, 71.04023396464065 11.156274872382301 C70.84100354771564 11.423225480797443, 70.64177313079064 11.690176089212585, 70.29258890812659 12.158051136245302 C70.0492680978739 12.44386960531443, 69.80594728762122 12.72968807438356, 69.48229594296866 13.10986736009567 C69.13795886756097 13.465423661053771, 68.79362179215326 13.820979962011872, 68.61268473676799 14.007812326905684 C68.30020188218423 14.291600987595398, 67.98771902760045 14.57538964828511, 67.6873287085019 14.848196188198111 C67.37561186633063 15.096782074696145, 67.06389502415936 15.345367961194182, 66.71003034457871 15.627565626425152 C66.33516483802632 15.88905557612987, 65.96029933147392 16.150545525834588, 65.6848055736057 16.34271804539089 C65.26585857638659 16.596686177110943, 64.8469115791675 16.850654308831, 64.61586726407678 16.990714730406093 C64.3140539057806 17.148170566108536, 64.0122405474844 17.30562640181098, 63.50760791279239 17.56889292409717 C63.058303230282384 17.767786778894493, 62.60899854777237 17.966680633691816, 62.364581595147804 18.07487676824742 C62.049528316211756 18.190819287216474, 61.73447503727571 18.306761806185524, 61.19148525146062 18.506587066708033 C60.870546811625815 18.601839911010757, 60.549608371791 18.69709275531348, 59.99313938623541 18.86224982926107 C59.5664737063348 18.959633486444623, 59.13980802643418 19.057017143628173, 58.774468259676766 19.140403561325773 C58.41415583340703 19.198656080140466, 58.053843407137286 19.25690859895516, 57.54047965284788 19.3399052695533 C57.13592064241264 19.37893259073659, 56.73136163197741 19.417959911919883, 56.2962442896239 19.45993515863156 C55.87048521249551 19.473588423545298, 55.44472613536712 19.487241688459033, 55.04687500000001 19.5 C55.04687500000001 19.5, 55.046875 19.5, 55.046875 19.5 C20.48461612083002 19.5, -14.077642758339962 19.5, -55.04687499999999 19.5 C-55.37579493065445 19.48945217802772, -55.70471486130891 19.478904356055438, -56.29624428962389 19.45993515863156 C-56.54992393404631 19.435462988428537, -56.803603578468724 19.410990818225518, -57.54047965284787 19.3399052695533 C-57.80160609287853 19.29768837179493, -58.06273253290918 19.255471474036558, -58.77446825967676 19.140403561325773 C-59.05783005704948 19.075728080183985, -59.341191854422206 19.0110525990422, -59.993139386235384 18.862249829261074 C-60.461080453467254 18.723367376779443, -60.92902152069912 18.58448492429781, -61.19148525146059 18.506587066708043 C-61.485584187278086 18.398355939706445, -61.77968312309557 18.29012481270485, -62.3645815951478 18.074876768247425 C-62.778520083157716 17.891638478654404, -63.19245857116764 17.708400189061383, -63.50760791279238 17.568892924097174 C-63.83240621799595 17.399445856315715, -64.15720452319952 17.229998788534253, -64.61586726407678 16.990714730406097 C-64.83727889539655 16.85649369834088, -65.05869052671632 16.722272666275664, -65.68480557360569 16.3427180453909 C-66.0547625477886 16.084652075380195, -66.42471952197151 15.82658610536949, -66.71003034457871 15.627565626425156 C-67.088079864036 15.326081194978183, -67.4661293834933 15.02459676353121, -67.68732870850187 14.848196188198125 C-67.89764265868533 14.657194623243697, -68.10795660886879 14.46619305828927, -68.61268473676797 14.007812326905697 C-68.81823554225896 13.795564244201264, -69.02378634774996 13.583316161496834, -69.48229594296865 13.109867360095677 C-69.7328523754531 12.815549517434546, -69.98340880793755 12.521231674773414, -70.29258890812658 12.158051136245307 C-70.46668691717863 11.924775664770456, -70.6407849262307 11.691500193295607, -71.04023396464063 11.156274872382316 C-71.25251655216859 10.830151812083061, -71.46479913969654 10.504028751783805, -71.72215887860425 10.108655082055249 C-71.86019458601142 9.86355870592276, -71.99823029341859 9.618462329790269, -72.3355614742735 9.019496659696289 C-72.49038569249919 8.69800085784306, -72.64520991072489 8.376505055989831, -72.87792114880834 7.893275190886686 C-73.05861943065955 7.446946941150596, -73.23931771251075 7.000618691414505, -73.34700922997033 6.73461856121551 C-73.45407955870789 6.412139790398137, -73.56114988744547 6.089661019580764, -73.74089813421489 5.5482879393051325 C-73.82563910754997 5.225133881008269, -73.91038008088506 4.9019798227114055, -74.05796928754556 4.339158212148136 C-74.11243570677854 4.059484660868571, -74.16690212601152 3.7798111095890063, -74.29691977658177 3.112197953150904 C-74.33668647040302 2.8037753286952185, -74.37645316422427 2.4953527042395334, -74.45676770250937 1.872449005199809 C-74.47472751858001 1.592710372996935, -74.49268733465065 1.3129717407940606, -74.53685621591342 0.6250057626472781 C-74.53685621591342 0.2419896331552045, -74.53685621591342 -0.14102649633686914, -74.53685621591342 -0.6250057626472687 C-74.51115620230715 -1.0253042192425839, -74.48545618870087 -1.4256026758378988, -74.45676770250937 -1.8724490051997822 C-74.41757819766404 -2.1763950659370437, -74.37838869281872 -2.480341126674305, -74.29691977658177 -3.112197953150895 C-74.2478678169355 -3.364069398799218, -74.1988158572892 -3.6159408444475405, -74.05796928754556 -4.339158212148126 C-73.95072270478819 -4.748135913164962, -73.84347612203082 -5.157113614181798, -73.74089813421489 -5.548287939305123 C-73.6154050991132 -5.92625296643157, -73.48991206401152 -6.304217993558018, -73.34700922997033 -6.734618561215485 C-73.21102576662754 -7.070500344733572, -73.07504230328476 -7.40638212825166, -72.87792114880834 -7.893275190886676 C-72.68036704151523 -8.303500521661586, -72.48281293422211 -8.713725852436497, -72.3355614742735 -9.019496659696282 C-72.16984477540925 -9.313743439165151, -72.004128076545 -9.60799021863402, -71.72215887860425 -10.108655082055243 C-71.53814183387561 -10.391354678253755, -71.35412478914698 -10.674054274452269, -71.04023396464063 -11.156274872382308 C-70.81294571994786 -11.460820413885566, -70.58565747525509 -11.765365955388821, -70.29258890812659 -12.158051136245302 C-70.0700607010963 -12.41944543043677, -69.847532494066 -12.680839724628239, -69.48229594296866 -13.10986736009567 C-69.30760892590507 -13.290246047284649, -69.1329219088415 -13.470624734473626, -68.61268473676799 -14.007812326905677 C-68.30205901924313 -14.289914384855644, -67.99143330171827 -14.572016442805609, -67.6873287085019 -14.848196188198107 C-67.42646859393615 -15.056225187785097, -67.16560847937042 -15.264254187372087, -66.71003034457871 -15.627565626425149 C-66.47554222186454 -15.791134390003322, -66.24105409915039 -15.954703153581496, -65.68480557360571 -16.342718045390885 C-65.42974704849317 -16.497336022204372, -65.17468852338064 -16.65195399901786, -64.61586726407678 -16.99071473040609 C-64.26323290906824 -17.174683847540965, -63.910598554059696 -17.358652964675837, -63.50760791279239 -17.56889292409717 C-63.26405815441835 -17.676705177482468, -63.02050839604431 -17.784517430867762, -62.364581595147804 -18.07487676824742 C-61.9716165599922 -18.219491533713647, -61.578651524836594 -18.364106299179877, -61.19148525146062 -18.506587066708033 C-60.84051033044272 -18.610754580961192, -60.48953540942481 -18.71492209521435, -59.99313938623541 -18.862249829261067 C-59.62469041902395 -18.946345901672874, -59.256241451812485 -19.03044197408468, -58.774468259676766 -19.140403561325773 C-58.29885105158324 -19.2172976630638, -57.82323384348972 -19.294191764801823, -57.54047965284788 -19.3399052695533 C-57.24693147243597 -19.368223509474298, -56.95338329202406 -19.396541749395293, -56.2962442896239 -19.45993515863156 C-56.034599463125836 -19.468325598956593, -55.77295463662778 -19.476716039281627, -55.04687500000001 -19.5 C-55.04687500000001 -19.5, -55.046875 -19.5, -55.046875 -19.5" stroke="none" stroke-width="0" fill="#ECECFF" style=""/><path d="M-55.046875 -19.5 C-18.57396143666324 -19.5, 17.89895212667352 -19.5, 55.046875 -19.5 M-55.046875 -19.5 C-30.98207684402152 -19.5, -6.917278688043041 -19.5, 55.046875 -19.5 M55.046875 -19.5 C55.046875 -19.5, 55.046875 -19.5, 55.046875 -19.5 M55.046875 -19.5 C55.046875 -19.5, 55.046875 -19.5, 55.046875 -19.5 M55.046875 -19.5 C55.39864924708248 -19.488719284583098, 55.750423494164956 -19.4774385691662, 56.2962442896239 -19.45993515863156 M55.046875 -19.5 C55.29753187694367 -19.49196192183043, 55.548188753887345 -19.48392384366086, 56.2962442896239 -19.45993515863156 M56.2962442896239 -19.45993515863156 C56.63958975017479 -19.426813034985546, 56.982935210725685 -19.39369091133953, 57.540479652847864 -19.3399052695533 M56.2962442896239 -19.45993515863156 C56.786365174923 -19.41265378628336, 57.2764860602221 -19.36537241393516, 57.540479652847864 -19.3399052695533 M57.540479652847864 -19.3399052695533 C57.8770380416448 -19.285493119301897, 58.21359643044175 -19.231080969050495, 58.77446825967676 -19.140403561325776 M57.540479652847864 -19.3399052695533 C57.82317811645335 -19.29420077431689, 58.10587658005883 -19.248496279080488, 58.77446825967676 -19.140403561325776 M58.77446825967676 -19.140403561325776 C59.134991767333794 -19.05811642333881, 59.49551527499084 -18.975829285351843, 59.99313938623539 -18.862249829261074 M58.77446825967676 -19.140403561325776 C59.083341989528535 -19.06990514807656, 59.39221571938031 -18.999406734827346, 59.99313938623539 -18.862249829261074 M59.99313938623539 -18.862249829261074 C60.32156803811992 -18.76477392933892, 60.64999669000445 -18.667298029416763, 61.191485251460605 -18.50658706670804 M59.99313938623539 -18.862249829261074 C60.32345274703731 -18.764214557625277, 60.653766107839225 -18.666179285989482, 61.191485251460605 -18.50658706670804 M61.191485251460605 -18.50658706670804 C61.59085924656122 -18.359613744738272, 61.99023324166184 -18.2126404227685, 62.3645815951478 -18.074876768247425 M61.191485251460605 -18.50658706670804 C61.49281819887592 -18.395693756567972, 61.794151146291235 -18.284800446427905, 62.3645815951478 -18.074876768247425 M62.3645815951478 -18.074876768247425 C62.646341728596724 -17.95014991528698, 62.92810186204565 -17.825423062326532, 63.50760791279238 -17.568892924097174 M62.3645815951478 -18.074876768247425 C62.818837547085664 -17.873791133348575, 63.27309349902354 -17.672705498449726, 63.50760791279238 -17.568892924097174 M63.50760791279238 -17.568892924097174 C63.82151979698852 -17.405125295182206, 64.13543168118466 -17.241357666267238, 64.61586726407678 -16.990714730406097 M63.50760791279238 -17.568892924097174 C63.882030848391366 -17.37355671842452, 64.25645378399035 -17.178220512751867, 64.61586726407678 -16.990714730406097 M64.61586726407678 -16.990714730406097 C64.97794737537006 -16.77121963912119, 65.34002748666336 -16.551724547836276, 65.6848055736057 -16.342718045390892 M64.61586726407678 -16.990714730406097 C64.92245906703107 -16.80485697772178, 65.22905086998537 -16.618999225037467, 65.6848055736057 -16.342718045390892 M65.6848055736057 -16.342718045390892 C66.05099554944351 -16.087279770355003, 66.41718552528131 -15.831841495319111, 66.71003034457871 -15.627565626425154 M65.6848055736057 -16.342718045390892 C65.98730040416649 -16.13171074638185, 66.28979523472728 -15.920703447372809, 66.71003034457871 -15.627565626425154 M66.71003034457871 -15.627565626425154 C67.03529138654011 -15.368178601020775, 67.3605524285015 -15.108791575616394, 67.68732870850187 -14.848196188198123 M66.71003034457871 -15.627565626425154 C66.9393879557186 -15.444659035003449, 67.1687455668585 -15.261752443581743, 67.68732870850187 -14.848196188198123 M67.68732870850187 -14.848196188198123 C68.0412208858019 -14.526800676248142, 68.39511306310195 -14.205405164298162, 68.61268473676799 -14.007812326905688 M67.68732870850187 -14.848196188198123 C67.91291873501115 -14.64332129490742, 68.13850876152043 -14.438446401616718, 68.61268473676799 -14.007812326905688 M68.61268473676799 -14.007812326905688 C68.85193930983296 -13.760762337050345, 69.09119388289793 -13.513712347195002, 69.48229594296865 -13.10986736009568 M68.61268473676799 -14.007812326905688 C68.87757351657577 -13.73429291398089, 69.14246229638353 -13.460773501056089, 69.48229594296865 -13.10986736009568 M69.48229594296865 -13.10986736009568 C69.75104321488045 -12.794181522355089, 70.01979048679226 -12.478495684614499, 70.29258890812658 -12.158051136245305 M69.48229594296865 -13.10986736009568 C69.80328207019039 -12.73281879043297, 70.12426819741212 -12.35577022077026, 70.29258890812658 -12.158051136245305 M70.29258890812658 -12.158051136245305 C70.47073263738778 -11.919354768262894, 70.64887636664899 -11.68065840028048, 71.04023396464063 -11.156274872382312 M70.29258890812658 -12.158051136245305 C70.54503982200889 -11.819789910394382, 70.79749073589122 -11.48152868454346, 71.04023396464063 -11.156274872382312 M71.04023396464063 -11.156274872382312 C71.18755457456461 -10.929950854416244, 71.33487518448858 -10.703626836450178, 71.72215887860425 -10.108655082055241 M71.04023396464063 -11.156274872382312 C71.20861288886371 -10.897599628703665, 71.37699181308679 -10.638924385025017, 71.72215887860425 -10.108655082055241 M71.72215887860425 -10.108655082055241 C71.95783443413968 -9.690189268464271, 72.19350998967512 -9.271723454873301, 72.3355614742735 -9.019496659696287 M71.72215887860425 -10.108655082055241 C71.85814147685619 -9.867204209127701, 71.99412407510813 -9.625753336200162, 72.3355614742735 -9.019496659696287 M72.3355614742735 -9.019496659696287 C72.52755085524018 -8.620826602204303, 72.71954023620685 -8.22215654471232, 72.87792114880834 -7.893275190886684 M72.3355614742735 -9.019496659696287 C72.489753426151 -8.69931377244343, 72.64394537802848 -8.379130885190573, 72.87792114880834 -7.893275190886684 M72.87792114880834 -7.893275190886684 C73.00380545861655 -7.5823385118528375, 73.12968976842477 -7.271401832818991, 73.34700922997033 -6.734618561215508 M72.87792114880834 -7.893275190886684 C73.06450116627309 -7.432418940469503, 73.25108118373785 -6.971562690052322, 73.34700922997033 -6.734618561215508 M73.34700922997033 -6.734618561215508 C73.49247993434916 -6.29648397723562, 73.637950638728 -5.8583493932557325, 73.74089813421489 -5.548287939305138 M73.34700922997033 -6.734618561215508 C73.46485688501622 -6.379680200691236, 73.5827045400621 -6.024741840166963, 73.74089813421489 -5.548287939305138 M73.74089813421489 -5.548287939305138 C73.83583893583643 -5.186237515118483, 73.93077973745797 -4.824187090931829, 74.05796928754556 -4.339158212148133 M73.74089813421489 -5.548287939305138 C73.86590496736076 -5.071582706215725, 73.99091180050662 -4.594877473126313, 74.05796928754556 -4.339158212148133 M74.05796928754556 -4.339158212148133 C74.14257164339452 -3.904742995577968, 74.22717399924348 -3.4703277790078024, 74.29691977658177 -3.1121979531509023 M74.05796928754556 -4.339158212148133 C74.12810258007785 -3.9790385776714627, 74.19823587261013 -3.618918943194792, 74.29691977658177 -3.1121979531509023 M74.29691977658177 -3.1121979531509023 C74.35379709951617 -2.6710686681695615, 74.41067442245055 -2.2299393831882206, 74.45676770250937 -1.872449005199798 M74.29691977658177 -3.1121979531509023 C74.35305835484638 -2.6767982259467913, 74.40919693311099 -2.2413984987426803, 74.45676770250937 -1.872449005199798 M74.45676770250937 -1.872449005199798 C74.48797579499694 -1.3863577739869988, 74.51918388748452 -0.9002665427741996, 74.53685621591342 -0.6250057626472757 M74.45676770250937 -1.872449005199798 C74.47941874730598 -1.5196406988981745, 74.5020697921026 -1.1668323925965511, 74.53685621591342 -0.6250057626472757 M74.53685621591342 -0.6250057626472757 C74.53685621591342 -0.14877426098209734, 74.53685621591342 0.327457240683081, 74.53685621591342 0.625005762647271 M74.53685621591342 -0.6250057626472757 C74.53685621591342 -0.19711710123961923, 74.53685621591342 0.23077156016803724, 74.53685621591342 0.625005762647271 M74.53685621591342 0.625005762647271 C74.5057308200152 1.1098089277294216, 74.47460542411697 1.5946120928115721, 74.45676770250937 1.8724490051997846 M74.53685621591342 0.625005762647271 C74.52060071578752 0.8781982983116012, 74.50434521566163 1.1313908339759313, 74.45676770250937 1.8724490051997846 M74.45676770250937 1.8724490051997846 C74.41256871759059 2.2152476041530424, 74.36836973267181 2.5580462031063007, 74.29691977658177 3.1121979531508885 M74.45676770250937 1.8724490051997846 C74.39755345789777 2.331702993232111, 74.33833921328618 2.7909569812644377, 74.29691977658177 3.1121979531508885 M74.29691977658177 3.1121979531508885 C74.22609812251451 3.475852178624371, 74.15527646844725 3.839506404097853, 74.05796928754556 4.339158212148129 M74.29691977658177 3.1121979531508885 C74.24144648327979 3.3970415899719333, 74.18597318997779 3.6818852267929785, 74.05796928754556 4.339158212148129 M74.05796928754556 4.339158212148129 C73.95366545675225 4.736913924529264, 73.84936162595893 5.134669636910401, 73.74089813421489 5.548287939305125 M74.05796928754556 4.339158212148129 C73.97801987367262 4.644039977540828, 73.89807045979967 4.9489217429335275, 73.74089813421489 5.548287939305125 M73.74089813421489 5.548287939305125 C73.63964746146074 5.853238833536696, 73.53839678870659 6.158189727768266, 73.34700922997033 6.734618561215495 M73.74089813421489 5.548287939305125 C73.64464654432223 5.8381823924535965, 73.54839495442955 6.128076845602067, 73.34700922997033 6.734618561215495 M73.34700922997033 6.734618561215495 C73.23318817977467 7.015758755779068, 73.11936712957902 7.296898950342641, 72.87792114880834 7.893275190886679 M73.34700922997033 6.734618561215495 C73.22720103924392 7.030547108643515, 73.1073928485175 7.326475656071535, 72.87792114880834 7.893275190886679 M72.87792114880834 7.893275190886679 C72.66540368169468 8.334572258493559, 72.45288621458101 8.775869326100437, 72.3355614742735 9.019496659696284 M72.87792114880834 7.893275190886679 C72.70806178185269 8.245991800778333, 72.53820241489703 8.598708410669987, 72.3355614742735 9.019496659696284 M72.3355614742735 9.019496659696284 C72.17803460473237 9.29920156789179, 72.02050773519126 9.578906476087296, 71.72215887860425 10.108655082055236 M72.3355614742735 9.019496659696284 C72.16151377344545 9.328535976757301, 71.98746607261741 9.637575293818317, 71.72215887860425 10.108655082055236 M71.72215887860425 10.108655082055236 C71.46923997533924 10.497206435705284, 71.21632107207421 10.885757789355331, 71.04023396464065 11.156274872382301 M71.72215887860425 10.108655082055236 C71.56194599832487 10.354785089346525, 71.4017331180455 10.600915096637811, 71.04023396464065 11.156274872382301 M71.04023396464065 11.156274872382301 C70.84084228182932 11.423441562393483, 70.641450599018 11.690608252404664, 70.29258890812659 12.158051136245302 M71.04023396464065 11.156274872382301 C70.80132975181327 11.476384752949455, 70.5624255389859 11.796494633516609, 70.29258890812659 12.158051136245302 M70.29258890812659 12.158051136245302 C70.03481834298819 12.460843109617542, 69.77704777784977 12.763635082989785, 69.48229594296866 13.10986736009567 M70.29258890812659 12.158051136245302 C69.99900001021892 12.502917361409198, 69.70541111231124 12.847783586573092, 69.48229594296866 13.10986736009567 M69.48229594296866 13.10986736009567 C69.21461127298939 13.386273759169404, 68.9469266030101 13.662680158243136, 68.61268473676799 14.007812326905684 M69.48229594296866 13.10986736009567 C69.21240071173735 13.388556345152587, 68.94250548050603 13.667245330209504, 68.61268473676799 14.007812326905684 M68.61268473676799 14.007812326905684 C68.42334988508242 14.179761229680862, 68.23401503339684 14.35171013245604, 67.6873287085019 14.848196188198111 M68.61268473676799 14.007812326905684 C68.25459414107465 14.333020731356411, 67.8965035453813 14.658229135807138, 67.6873287085019 14.848196188198111 M67.6873287085019 14.848196188198111 C67.37471730947058 15.097495459986877, 67.06210591043927 15.346794731775645, 66.71003034457871 15.627565626425152 M67.6873287085019 14.848196188198111 C67.4399441150074 15.045478818329453, 67.19255952151292 15.242761448460794, 66.71003034457871 15.627565626425152 M66.71003034457871 15.627565626425152 C66.44108248821057 15.815172008462511, 66.17213463184243 16.00277839049987, 65.6848055736057 16.34271804539089 M66.71003034457871 15.627565626425152 C66.31056094234707 15.906218188670234, 65.91109154011542 16.184870750915316, 65.6848055736057 16.34271804539089 M65.6848055736057 16.34271804539089 C65.30391579441695 16.573615667891904, 64.92302601522822 16.804513290392915, 64.61586726407678 16.990714730406093 M65.6848055736057 16.34271804539089 C65.31753369208815 16.565360418295977, 64.9502618105706 16.788002791201066, 64.61586726407678 16.990714730406093 M64.61586726407678 16.990714730406093 C64.39185840022907 17.10758001119092, 64.16784953638135 17.224445291975748, 63.50760791279239 17.56889292409717 M64.61586726407678 16.990714730406093 C64.3158599340338 17.147228362325652, 64.01585260399082 17.30374199424521, 63.50760791279239 17.56889292409717 M63.50760791279239 17.56889292409717 C63.14133802813277 17.73102973702589, 62.77506814347315 17.893166549954607, 62.364581595147804 18.07487676824742 M63.50760791279239 17.56889292409717 C63.201991399859125 17.70418028858098, 62.89637488692586 17.839467653064784, 62.364581595147804 18.07487676824742 M62.364581595147804 18.07487676824742 C62.06016478511232 18.186904968338624, 61.75574797507683 18.29893316842983, 61.19148525146062 18.506587066708033 M62.364581595147804 18.07487676824742 C62.073977282869535 18.181821841482638, 61.783372970591266 18.288766914717854, 61.19148525146062 18.506587066708033 M61.19148525146062 18.506587066708033 C60.8762330665443 18.60015226039871, 60.560980881627984 18.693717454089388, 59.99313938623541 18.86224982926107 M61.19148525146062 18.506587066708033 C60.75421482770353 18.636366633199845, 60.31694440394644 18.76614619969166, 59.99313938623541 18.86224982926107 M59.99313938623541 18.86224982926107 C59.64479830797642 18.94175640723571, 59.29645722971743 19.021262985210356, 58.774468259676766 19.140403561325773 M59.99313938623541 18.86224982926107 C59.710595260175666 18.926738682261476, 59.428051134115925 18.991227535261878, 58.774468259676766 19.140403561325773 M58.774468259676766 19.140403561325773 C58.49615967509809 19.185398334965146, 58.21785109051942 19.230393108604517, 57.54047965284788 19.3399052695533 M58.774468259676766 19.140403561325773 C58.48507370697339 19.18719062831858, 58.19567915427002 19.23397769531139, 57.54047965284788 19.3399052695533 M57.54047965284788 19.3399052695533 C57.22485484759998 19.3703532149212, 56.909230042352085 19.4008011602891, 56.2962442896239 19.45993515863156 M57.54047965284788 19.3399052695533 C57.19805673587514 19.37293839652985, 56.855633818902405 19.4059715235064, 56.2962442896239 19.45993515863156 M56.2962442896239 19.45993515863156 C56.00032831329868 19.469424608026802, 55.70441233697346 19.478914057422045, 55.04687500000001 19.5 M56.2962442896239 19.45993515863156 C55.87613340174589 19.47340729710957, 55.456022513867886 19.486879435587582, 55.04687500000001 19.5 M55.04687500000001 19.5 C55.04687500000001 19.5, 55.04687500000001 19.5, 55.046875 19.5 M55.04687500000001 19.5 C55.04687500000001 19.5, 55.046875 19.5, 55.046875 19.5 M55.046875 19.5 C15.132332482197292 19.5, -24.782210035605416 19.5, -55.04687499999999 19.5 M55.046875 19.5 C16.862088306285912 19.5, -21.322698387428176 19.5, -55.04687499999999 19.5 M-55.04687499999999 19.5 C-55.38717776528743 19.489087152676383, -55.72748053057487 19.478174305352763, -56.29624428962389 19.45993515863156 M-55.04687499999999 19.5 C-55.38040695733538 19.489304279308826, -55.71393891467078 19.47860855861765, -56.29624428962389 19.45993515863156 M-56.29624428962389 19.45993515863156 C-56.793219320738444 19.41199257507986, -57.290194351852996 19.36404999152816, -57.54047965284787 19.3399052695533 M-56.29624428962389 19.45993515863156 C-56.66929088446915 19.423947802281006, -57.042337479314405 19.387960445930457, -57.54047965284787 19.3399052695533 M-57.54047965284787 19.3399052695533 C-57.899292115633926 19.281895253202258, -58.258104578419974 19.223885236851217, -58.77446825967676 19.140403561325773 M-57.54047965284787 19.3399052695533 C-58.03055657216241 19.260673433841795, -58.52063349147696 19.18144159813029, -58.77446825967676 19.140403561325773 M-58.77446825967676 19.140403561325773 C-59.21351240586988 19.040194599988, -59.652556552063 18.939985638650224, -59.993139386235384 18.862249829261074 M-58.77446825967676 19.140403561325773 C-59.04356745302912 19.078983426479443, -59.31266664638148 19.017563291633113, -59.993139386235384 18.862249829261074 M-59.993139386235384 18.862249829261074 C-60.44462769379579 18.728250469487634, -60.89611600135619 18.594251109714197, -61.19148525146059 18.506587066708043 M-59.993139386235384 18.862249829261074 C-60.28221593825724 18.776453426014776, -60.57129249027909 18.690657022768477, -61.19148525146059 18.506587066708043 M-61.19148525146059 18.506587066708043 C-61.471179113190594 18.403657140129685, -61.750872974920604 18.30072721355133, -62.3645815951478 18.074876768247425 M-61.19148525146059 18.506587066708043 C-61.56262610475476 18.370003801907348, -61.933766958048935 18.233420537106653, -62.3645815951478 18.074876768247425 M-62.3645815951478 18.074876768247425 C-62.8169445831242 17.87462909234154, -63.26930757110059 17.67438141643565, -63.50760791279238 17.568892924097174 M-62.3645815951478 18.074876768247425 C-62.74331421923689 17.907223070267307, -63.12204684332599 17.739569372287185, -63.50760791279238 17.568892924097174 M-63.50760791279238 17.568892924097174 C-63.741217976051416 17.447018703729324, -63.97482803931045 17.32514448336147, -64.61586726407678 16.990714730406097 M-63.50760791279238 17.568892924097174 C-63.85979573040224 17.385156765237173, -64.2119835480121 17.201420606377177, -64.61586726407678 16.990714730406097 M-64.61586726407678 16.990714730406097 C-64.95624746438924 16.7843742526806, -65.29662766470169 16.578033774955106, -65.68480557360569 16.3427180453909 M-64.61586726407678 16.990714730406097 C-64.89350958455012 16.822406324127783, -65.17115190502344 16.65409791784947, -65.68480557360569 16.3427180453909 M-65.68480557360569 16.3427180453909 C-65.89414668999561 16.196690744828164, -66.10348780638552 16.050663444265428, -66.71003034457871 15.627565626425156 M-65.68480557360569 16.3427180453909 C-66.04812592985478 16.089281492756264, -66.41144628610388 15.835844940121628, -66.71003034457871 15.627565626425156 M-66.71003034457871 15.627565626425156 C-67.10087038667508 15.315881093543622, -67.49171042877146 15.004196560662088, -67.68732870850187 14.848196188198125 M-66.71003034457871 15.627565626425156 C-67.0330554666025 15.36996168767069, -67.3560805886263 15.112357748916223, -67.68732870850187 14.848196188198125 M-67.68732870850187 14.848196188198125 C-68.0041305540282 14.560485134208625, -68.32093239955452 14.272774080219122, -68.61268473676797 14.007812326905697 M-67.68732870850187 14.848196188198125 C-68.03399320720509 14.53336466271588, -68.38065770590829 14.218533137233635, -68.61268473676797 14.007812326905697 M-68.61268473676797 14.007812326905697 C-68.80520498153773 13.80901936797487, -68.9977252263075 13.61022640904404, -69.48229594296865 13.109867360095677 M-68.61268473676797 14.007812326905697 C-68.85246022509153 13.760224449277922, -69.09223571341509 13.51263657165015, -69.48229594296865 13.109867360095677 M-69.48229594296865 13.109867360095677 C-69.75341406154449 12.791396590958525, -70.02453218012032 12.472925821821374, -70.29258890812658 12.158051136245307 M-69.48229594296865 13.109867360095677 C-69.80197531662994 12.734353777521456, -70.12165469029124 12.358840194947234, -70.29258890812658 12.158051136245307 M-70.29258890812658 12.158051136245307 C-70.45442097141996 11.941210914636423, -70.61625303471337 11.724370693027542, -71.04023396464063 11.156274872382316 M-70.29258890812658 12.158051136245307 C-70.54643722856666 11.81791751291334, -70.80028554900674 11.477783889581373, -71.04023396464063 11.156274872382316 M-71.04023396464063 11.156274872382316 C-71.18017440704209 10.941288773583313, -71.32011484944353 10.72630267478431, -71.72215887860425 10.108655082055249 M-71.04023396464063 11.156274872382316 C-71.2578706563411 10.821926470295809, -71.47550734804156 10.487578068209304, -71.72215887860425 10.108655082055249 M-71.72215887860425 10.108655082055249 C-71.84740962354458 9.886259701400462, -71.97266036848491 9.663864320745676, -72.3355614742735 9.019496659696289 M-71.72215887860425 10.108655082055249 C-71.85717979701326 9.868911769069488, -71.99220071542226 9.629168456083725, -72.3355614742735 9.019496659696289 M-72.3355614742735 9.019496659696289 C-72.48618991037189 8.706713489205745, -72.63681834647029 8.393930318715201, -72.87792114880834 7.893275190886686 M-72.3355614742735 9.019496659696289 C-72.5005268596663 8.676942507234354, -72.66549224505908 8.33438835477242, -72.87792114880834 7.893275190886686 M-72.87792114880834 7.893275190886686 C-73.03991122690852 7.493156566114154, -73.20190130500869 7.0930379413416205, -73.34700922997033 6.73461856121551 M-72.87792114880834 7.893275190886686 C-72.99564837423584 7.602486667979698, -73.11337559966334 7.31169814507271, -73.34700922997033 6.73461856121551 M-73.34700922997033 6.73461856121551 C-73.50180457561014 6.268399643437368, -73.65659992124996 5.802180725659226, -73.74089813421489 5.5482879393051325 M-73.34700922997033 6.73461856121551 C-73.43569094995155 6.467523350145317, -73.52437266993277 6.200428139075124, -73.74089813421489 5.5482879393051325 M-73.74089813421489 5.5482879393051325 C-73.85121710083394 5.127593907044121, -73.96153606745298 4.706899874783109, -74.05796928754556 4.339158212148136 M-73.74089813421489 5.5482879393051325 C-73.84393157328779 5.155376781145156, -73.9469650123607 4.7624656229851805, -74.05796928754556 4.339158212148136 M-74.05796928754556 4.339158212148136 C-74.14645783117174 3.884788242687975, -74.23494637479793 3.430418273227814, -74.29691977658177 3.112197953150904 M-74.05796928754556 4.339158212148136 C-74.11680933125828 4.037027023530958, -74.175649374971 3.734895834913779, -74.29691977658177 3.112197953150904 M-74.29691977658177 3.112197953150904 C-74.33961739494296 2.781043656739916, -74.38231501330417 2.449889360328928, -74.45676770250937 1.872449005199809 M-74.29691977658177 3.112197953150904 C-74.35002171694478 2.7003497898596267, -74.40312365730779 2.2885016265683493, -74.45676770250937 1.872449005199809 M-74.45676770250937 1.872449005199809 C-74.47992151666942 1.5118096602345146, -74.50307533082949 1.15117031526922, -74.53685621591342 0.6250057626472781 M-74.45676770250937 1.872449005199809 C-74.4872616805441 1.3974806830127984, -74.51775565857884 0.9225123608257877, -74.53685621591342 0.6250057626472781 M-74.53685621591342 0.6250057626472781 C-74.53685621591342 0.19663567100745183, -74.53685621591342 -0.23173442063237448, -74.53685621591342 -0.6250057626472687 M-74.53685621591342 0.6250057626472781 C-74.53685621591342 0.22666775046485993, -74.53685621591342 -0.17167026171755828, -74.53685621591342 -0.6250057626472687 M-74.53685621591342 -0.6250057626472687 C-74.51424976798727 -0.9771194366932849, -74.49164332006113 -1.3292331107393012, -74.45676770250937 -1.8724490051997822 M-74.53685621591342 -0.6250057626472687 C-74.51340439103328 -0.9902868651278822, -74.48995256615312 -1.3555679676084957, -74.45676770250937 -1.8724490051997822 M-74.45676770250937 -1.8724490051997822 C-74.41473159988747 -2.198472716167857, -74.37269549726557 -2.524496427135932, -74.29691977658177 -3.112197953150895 M-74.45676770250937 -1.8724490051997822 C-74.41270218996009 -2.2142124188123264, -74.3686366774108 -2.5559758324248705, -74.29691977658177 -3.112197953150895 M-74.29691977658177 -3.112197953150895 C-74.2272070128503 -3.4701582611142197, -74.15749424911881 -3.828118569077544, -74.05796928754556 -4.339158212148126 M-74.29691977658177 -3.112197953150895 C-74.2422883628037 -3.392718716547871, -74.18765694902564 -3.673239479944847, -74.05796928754556 -4.339158212148126 M-74.05796928754556 -4.339158212148126 C-73.94116225953505 -4.784594034438366, -73.82435523152455 -5.230029856728607, -73.74089813421489 -5.548287939305123 M-74.05796928754556 -4.339158212148126 C-73.98810419393084 -4.605584093824181, -73.91823910031611 -4.8720099755002355, -73.74089813421489 -5.548287939305123 M-73.74089813421489 -5.548287939305123 C-73.61536007200966 -5.926388580893312, -73.48982200980446 -6.304489222481501, -73.34700922997033 -6.734618561215485 M-73.74089813421489 -5.548287939305123 C-73.63492003838755 -5.867477078620579, -73.5289419425602 -6.186666217936037, -73.34700922997033 -6.734618561215485 M-73.34700922997033 -6.734618561215485 C-73.17573812079193 -7.157661512187733, -73.00446701161356 -7.5807044631599805, -72.87792114880834 -7.893275190886676 M-73.34700922997033 -6.734618561215485 C-73.23239062343782 -7.017728735350759, -73.11777201690533 -7.300838909486033, -72.87792114880834 -7.893275190886676 M-72.87792114880834 -7.893275190886676 C-72.68298585278893 -8.298062504018157, -72.48805055676951 -8.702849817149636, -72.3355614742735 -9.019496659696282 M-72.87792114880834 -7.893275190886676 C-72.68094202019235 -8.302306566135954, -72.48396289157637 -8.711337941385233, -72.3355614742735 -9.019496659696282 M-72.3355614742735 -9.019496659696282 C-72.1954982981211 -9.26819301188941, -72.05543512196869 -9.516889364082537, -71.72215887860425 -10.108655082055243 M-72.3355614742735 -9.019496659696282 C-72.16040768002661 -9.33049995762657, -71.98525388577971 -9.641503255556858, -71.72215887860425 -10.108655082055243 M-71.72215887860425 -10.108655082055243 C-71.48852727995175 -10.46757595645398, -71.25489568129926 -10.826496830852715, -71.04023396464063 -11.156274872382308 M-71.72215887860425 -10.108655082055243 C-71.53266829064441 -10.39976351050903, -71.34317770268459 -10.690871938962818, -71.04023396464063 -11.156274872382308 M-71.04023396464063 -11.156274872382308 C-70.82325512026335 -11.447006756668499, -70.60627627588607 -11.73773864095469, -70.29258890812659 -12.158051136245302 M-71.04023396464063 -11.156274872382308 C-70.7942066651308 -11.48592904017742, -70.54817936562097 -11.81558320797253, -70.29258890812659 -12.158051136245302 M-70.29258890812659 -12.158051136245302 C-70.03604527693521 -12.45940188318884, -69.77950164574385 -12.760752630132375, -69.48229594296866 -13.10986736009567 M-70.29258890812659 -12.158051136245302 C-70.00144112760029 -12.500049886029522, -69.71029334707399 -12.842048635813741, -69.48229594296866 -13.10986736009567 M-69.48229594296866 -13.10986736009567 C-69.26538404204923 -13.333846706593246, -69.04847214112979 -13.557826053090823, -68.61268473676799 -14.007812326905677 M-69.48229594296866 -13.10986736009567 C-69.14615432436877 -13.456961179040187, -68.81001270576888 -13.804054997984704, -68.61268473676799 -14.007812326905677 M-68.61268473676799 -14.007812326905677 C-68.38754737352028 -14.212276123399038, -68.16241001027258 -14.4167399198924, -67.6873287085019 -14.848196188198107 M-68.61268473676799 -14.007812326905677 C-68.26552712301834 -14.32309168642598, -67.91836950926871 -14.638371045946284, -67.6873287085019 -14.848196188198107 M-67.6873287085019 -14.848196188198107 C-67.40550626846006 -15.072942084521381, -67.12368382841821 -15.297687980844655, -66.71003034457871 -15.627565626425149 M-67.6873287085019 -14.848196188198107 C-67.43290305856546 -15.051093873471526, -67.17847740862902 -15.253991558744945, -66.71003034457871 -15.627565626425149 M-66.71003034457871 -15.627565626425149 C-66.473196914245 -15.792770375071994, -66.23636348391128 -15.957975123718837, -65.68480557360571 -16.342718045390885 M-66.71003034457871 -15.627565626425149 C-66.31914758035377 -15.900228521706332, -65.92826481612882 -16.172891416987515, -65.68480557360571 -16.342718045390885 M-65.68480557360571 -16.342718045390885 C-65.2741779269423 -16.59164293791415, -64.86355028027889 -16.84056783043741, -64.61586726407678 -16.99071473040609 M-65.68480557360571 -16.342718045390885 C-65.33212582801512 -16.556514579744135, -64.97944608242453 -16.770311114097385, -64.61586726407678 -16.99071473040609 M-64.61586726407678 -16.99071473040609 C-64.33547445503113 -17.136995479285044, -64.05508164598547 -17.283276228164, -63.50760791279239 -17.56889292409717 M-64.61586726407678 -16.99071473040609 C-64.25189063377464 -17.18060110529656, -63.8879140034725 -17.37048748018703, -63.50760791279239 -17.56889292409717 M-63.50760791279239 -17.56889292409717 C-63.1330713387765 -17.734689155181282, -62.75853476476062 -17.90048538626539, -62.364581595147804 -18.07487676824742 M-63.50760791279239 -17.56889292409717 C-63.13166500642578 -17.73531169679558, -62.755722100059174 -17.90173046949399, -62.364581595147804 -18.07487676824742 M-62.364581595147804 -18.07487676824742 C-62.12955458899279 -18.161368879078296, -61.89452758283777 -18.24786098990917, -61.19148525146062 -18.506587066708033 M-62.364581595147804 -18.07487676824742 C-61.91288159082178 -18.241106545308465, -61.461181586495755 -18.40733632236951, -61.19148525146062 -18.506587066708033 M-61.19148525146062 -18.506587066708033 C-60.72856096777188 -18.6439805641677, -60.26563668408314 -18.781374061627368, -59.99313938623541 -18.862249829261067 M-61.19148525146062 -18.506587066708033 C-60.84408461539784 -18.609693751948317, -60.49668397933506 -18.712800437188598, -59.99313938623541 -18.862249829261067 M-59.99313938623541 -18.862249829261067 C-59.58947812355738 -18.95438287833142, -59.185816860879335 -19.046515927401767, -58.774468259676766 -19.140403561325773 M-59.99313938623541 -18.862249829261067 C-59.53390614143675 -18.967066820609375, -59.07467289663809 -19.071883811957687, -58.774468259676766 -19.140403561325773 M-58.774468259676766 -19.140403561325773 C-58.42107358711127 -19.197537671369545, -58.06767891454577 -19.254671781413318, -57.54047965284788 -19.3399052695533 M-58.774468259676766 -19.140403561325773 C-58.33597686313085 -19.21129544976775, -57.89748546658494 -19.282187338209724, -57.54047965284788 -19.3399052695533 M-57.54047965284788 -19.3399052695533 C-57.23507593893701 -19.369367198532576, -56.92967222502613 -19.398829127511853, -56.2962442896239 -19.45993515863156 M-57.54047965284788 -19.3399052695533 C-57.05159184758681 -19.387067688153223, -56.562704042325755 -19.434230106753148, -56.2962442896239 -19.45993515863156 M-56.2962442896239 -19.45993515863156 C-55.923090499417555 -19.471901474383685, -55.54993670921121 -19.48386779013581, -55.04687500000001 -19.5 M-56.2962442896239 -19.45993515863156 C-55.910699929916575 -19.4722988158308, -55.52515557020924 -19.484662473030046, -55.04687500000001 -19.5 M-55.04687500000001 -19.5 C-55.04687500000001 -19.5, -55.04687500000001 -19.5, -55.046875 -19.5 M-55.04687500000001 -19.5 C-55.04687500000001 -19.5, -55.046875 -19.5, -55.046875 -19.5" stroke="#9370DB" stroke-width="1.3" fill="none" stroke-dasharray="0 0" style=""/></g><g class="label" style="" transform="translate(-62.171875, -12)"><rect/><foreignObject width="124.34375" height="24"><div xmlns="http://www.w3.org/1999/xhtml" style="display: table-cell; white-space: nowrap; line-height: 1.5; max-width: 200px; text-align: center;"><span class="nodeLabel"><p>The printed story</p></span></div></foreignObject></g></g><g class="node default" id="my-svg-flowchart-REVIEW-12" data-look="classic" transform="translate(580.671875, 1784.5625)"><rect class="basic label-container" style="" x="-130" y="-51" width="260" height="102"/><g class="label" style="" transform="translate(-100, -36)"><rect/><foreignObject width="200" height="72"><div xmlns="http://www.w3.org/1999/xhtml" style="display: table; white-space: break-spaces; line-height: 1.5; max-width: 200px; text-align: center; width: 200px;"><span class="nodeLabel"><p>One editor review<br />published article unchanged</p></span></div></foreignObject></g></g></g></g></g><defs><filter id="my-svg-drop-shadow" height="130%" width="130%"><feDropShadow dx="4" dy="4" stdDeviation="0" flood-opacity="0.06" flood-color="#000000"/></filter></defs><defs><filter id="my-svg-drop-shadow-small" height="150%" width="150%"><feDropShadow dx="2" dy="2" stdDeviation="0" flood-opacity="0.06" flood-color="#000000"/></filter></defs></svg>